# xmcd
#
# Track frame offsets:
#	150
#	3606
#	30985
#	55186
#	80394
#	104734
#	129986
#	150493
#	179648
#	202847
#	230880
#
# Disc length: 3325 seconds
#
# Revision: 0
# Processed by: cddbd v1.5.2PL0 Copyright (c) Steve Scherf et al.
# Submitted via: audiograbber 1.83.01
#
DISCID=890cfb0b
DTITLE=Shabba Djakout - Pi Piti Pi Red
DYEAR=2009
DGENRE=WORLD
TTITLE0=INTRO
TTITLE1=WEEK END
TTITLE2=MAP BAY VAG
TTITLE3=I WANT YOU
TTITLE4=I'M IN LOVE
TTITLE5=RARA LAGE
TTITLE6=BISPIDIDA
TTITLE7=BEL RANKONT
TTITLE8=POLICE
TTITLE9=PLEZI NOEL
TTITLE10=HAITI MONDIAL
EXTD=
EXTT0=
EXTT1=
EXTT2=
EXTT3=
EXTT4=
EXTT5=
EXTT6=
EXTT7=
EXTT8=
EXTT9=
EXTT10=
PLAYORDER=
